<svg xmlns="http://www.w3.org/2000/svg" height="35" viewBox="0 96 960 960" width="35" fill="red"><path d="M48.5 971.652V185.848H481.11v176.217H911.5v609.587h-863Zm74.674-74.674h107.044V789.935H123.174v107.043Zm0-176.217h107.044V613.478H123.174v107.283Zm0-176.978h107.044V436.5H123.174v107.283Zm0-176.457h107.044V260.283H123.174v107.043Zm176.217 529.652h107.044V789.935H299.391v107.043Zm0-176.217h107.044V613.478H299.391v107.283Zm0-176.978h107.044V436.5H299.391v107.283Zm0-176.457h107.044V260.283H299.391v107.043Zm176.218 529.652h361.217V436.5H475.609v107.283h82.043v69.174h-82.043v107.804h82.043v69.174h-82.043v107.043ZM662.13 612.957v-69.174h69.174v69.174H662.13Zm0 176.978v-69.174h69.174v69.174H662.13Z"/></svg>